<?xml version="1.0" encoding="UTF-8"?><svg xmlns="http://www.w3.org/2000/svg" xmlns:xlink="http://www.w3.org/1999/xlink" fill-opacity="1" color-rendering="auto" color-interpolation="auto" text-rendering="auto" stroke="black" stroke-linecap="square" width="892" stroke-miterlimit="10" shape-rendering="auto" stroke-opacity="1" fill="black" stroke-dasharray="none" font-weight="normal" stroke-width="1" height="377" font-family="'Dialog'" font-style="normal" stroke-linejoin="miter" font-size="12px" stroke-dashoffset="0" image-rendering="auto">
  <!--Generated by ySVG 2.5-->
  <defs id="genericDefs"/>
  <g>
    <defs id="defs1">
      <clipPath clipPathUnits="userSpaceOnUse" id="clipPath1">
        <path d="M0 0 L892 0 L892 377 L0 377 L0 0 Z"/>
      </clipPath>
      <clipPath clipPathUnits="userSpaceOnUse" id="clipPath2">
        <path d="M90 65 L982 65 L982 442 L90 442 L90 65 Z"/>
      </clipPath>
    </defs>
    <g fill="white" text-rendering="geometricPrecision" shape-rendering="geometricPrecision" transform="translate(-90,-65)" stroke="white">
      <rect x="90" width="892" height="377" y="65" clip-path="url(#clipPath2)" stroke="none"/>
    </g>
    <g fill="silver" text-rendering="geometricPrecision" shape-rendering="geometricPrecision" transform="matrix(1,0,0,1,-90,-65)" stroke="silver">
      <rect x="387.6738" width="236.4246" height="308.4095" y="80.3654" clip-path="url(#clipPath2)" stroke="none"/>
      <rect x="387.6738" y="80.3654" clip-path="url(#clipPath2)" fill="white" width="1" height="308.4095" stroke="none"/>
      <rect x="388.6738" y="80.3654" clip-path="url(#clipPath2)" fill="white" width="234.4246" height="1" stroke="none"/>
      <rect x="388.6738" y="387.775" clip-path="url(#clipPath2)" fill="rgb(134,134,134)" width="235.4246" height="1" stroke="none"/>
      <rect x="623.0985" y="80.3654" clip-path="url(#clipPath2)" fill="rgb(134,134,134)" width="1" height="307.4095" stroke="none"/>
      <rect x="624.0985" width="342.4182" height="308.4095" y="80.3654" clip-path="url(#clipPath2)" stroke="none"/>
      <rect x="624.0985" y="80.3654" clip-path="url(#clipPath2)" fill="white" width="1" height="308.4095" stroke="none"/>
      <rect x="625.0985" y="80.3654" clip-path="url(#clipPath2)" fill="white" width="340.4182" height="1" stroke="none"/>
      <rect x="625.0985" y="387.775" clip-path="url(#clipPath2)" fill="rgb(134,134,134)" width="341.4182" height="1" stroke="none"/>
      <rect x="965.5166" y="80.3654" clip-path="url(#clipPath2)" fill="rgb(134,134,134)" width="1" height="307.4095" stroke="none"/>
      <rect x="105.5138" width="282.16" height="308.4095" y="80.3654" clip-path="url(#clipPath2)" stroke="none"/>
      <rect x="105.5138" y="80.3654" clip-path="url(#clipPath2)" fill="white" width="1" height="308.4095" stroke="none"/>
      <rect x="106.5138" y="80.3654" clip-path="url(#clipPath2)" fill="white" width="280.16" height="1" stroke="none"/>
      <rect x="106.5138" y="387.775" clip-path="url(#clipPath2)" fill="rgb(134,134,134)" width="281.16" height="1" stroke="none"/>
      <rect x="386.6738" y="80.3654" clip-path="url(#clipPath2)" fill="rgb(134,134,134)" width="1" height="307.4095" stroke="none"/>
      <rect x="200" y="263" clip-path="url(#clipPath2)" fill="rgb(153,204,255)" width="61" height="30" stroke="none"/>
    </g>
    <g text-rendering="geometricPrecision" stroke-miterlimit="1.45" shape-rendering="geometricPrecision" transform="matrix(1,0,0,1,-90,-65)" stroke-linecap="butt">
      <rect fill="none" x="200" width="61" height="30" y="263" clip-path="url(#clipPath2)"/>
      <text x="220.7031" xml:space="preserve" y="282.1543" clip-path="url(#clipPath2)" font-family="sans-serif" stroke="none">MD</text>
    </g>
    <g fill="rgb(204,255,255)" text-rendering="geometricPrecision" shape-rendering="geometricPrecision" transform="matrix(1,0,0,1,-90,-65)" stroke="rgb(204,255,255)">
      <rect x="200" width="61" height="30" y="211" clip-path="url(#clipPath2)" stroke="none"/>
    </g>
    <g text-rendering="geometricPrecision" stroke-miterlimit="1.45" shape-rendering="geometricPrecision" transform="matrix(1,0,0,1,-90,-65)" stroke-linecap="butt">
      <rect fill="none" x="200" width="61" height="30" y="211" clip-path="url(#clipPath2)"/>
      <text x="215.3594" xml:space="preserve" y="230.1543" clip-path="url(#clipPath2)" font-family="sans-serif" stroke="none">Docx</text>
    </g>
    <g fill="rgb(255,204,0)" text-rendering="geometricPrecision" shape-rendering="geometricPrecision" transform="matrix(1,0,0,1,-90,-65)" stroke="rgb(255,204,0)">
      <rect x="724.0217" width="61" height="30" y="263" clip-path="url(#clipPath2)" stroke="none"/>
    </g>
    <g text-rendering="geometricPrecision" stroke-miterlimit="1.45" shape-rendering="geometricPrecision" transform="matrix(1,0,0,1,-90,-65)" stroke-linecap="butt">
      <rect fill="none" x="724.0217" width="61" height="30" y="263" clip-path="url(#clipPath2)"/>
      <text x="728.4915" xml:space="preserve" y="282.1543" clip-path="url(#clipPath2)" font-family="sans-serif" stroke="none">HTML SP</text>
    </g>
    <g fill="rgb(204,153,255)" text-rendering="geometricPrecision" shape-rendering="geometricPrecision" transform="matrix(1,0,0,1,-90,-65)" stroke="rgb(204,153,255)">
      <rect x="884.9224" width="57.04" height="30" y="345.1204" clip-path="url(#clipPath2)" stroke="none"/>
    </g>
    <g text-rendering="geometricPrecision" stroke-miterlimit="1.45" shape-rendering="geometricPrecision" transform="matrix(1,0,0,1,-90,-65)" stroke-linecap="butt">
      <rect fill="none" x="884.9224" width="57.04" height="30" y="345.1204" clip-path="url(#clipPath2)"/>
      <text x="900.8125" xml:space="preserve" y="357.2903" clip-path="url(#clipPath2)" font-family="sans-serif" stroke="none">XML</text>
      <text x="895.5537" xml:space="preserve" y="371.259" clip-path="url(#clipPath2)" font-family="sans-serif" stroke="none">Erudit</text>
    </g>
    <g fill="rgb(204,255,204)" text-rendering="geometricPrecision" shape-rendering="geometricPrecision" transform="matrix(1,0,0,1,-90,-65)" stroke="rgb(204,255,204)">
      <rect x="200" width="61" height="30" y="315" clip-path="url(#clipPath2)" stroke="none"/>
    </g>
    <g text-rendering="geometricPrecision" stroke-miterlimit="1.45" shape-rendering="geometricPrecision" transform="matrix(1,0,0,1,-90,-65)" stroke-linecap="butt">
      <rect fill="none" x="200" width="61" height="30" y="315" clip-path="url(#clipPath2)"/>
      <text x="210.5371" xml:space="preserve" y="334.1543" clip-path="url(#clipPath2)" font-family="sans-serif" stroke="none">Zotero</text>
    </g>
    <g fill="rgb(255,204,0)" text-rendering="geometricPrecision" shape-rendering="geometricPrecision" transform="matrix(1,0,0,1,-90,-65)" stroke="rgb(255,204,0)">
      <rect x="807.4347" width="57.04" height="80.5106" y="237.7447" clip-path="url(#clipPath2)" stroke="none"/>
      <rect x="807.4347" y="237.7447" clip-path="url(#clipPath2)" fill="yellow" width="1" height="80.5106" stroke="none"/>
      <rect x="808.4347" y="237.7447" clip-path="url(#clipPath2)" fill="yellow" width="55.04" height="1" stroke="none"/>
      <rect x="808.4347" y="317.2553" clip-path="url(#clipPath2)" fill="rgb(178,142,0)" width="56.04" height="1" stroke="none"/>
      <rect x="863.4747" y="237.7447" clip-path="url(#clipPath2)" fill="rgb(178,142,0)" width="1" height="79.5106" stroke="none"/>
    </g>
    <g text-rendering="geometricPrecision" stroke-miterlimit="1.45" shape-rendering="geometricPrecision" font-family="sans-serif" transform="matrix(1,0,0,1,-90,-65)" stroke-linecap="butt">
      <text x="814.7086" xml:space="preserve" y="282.1543" clip-path="url(#clipPath2)" stroke="none">Django</text>
    </g>
    <g fill="rgb(255,204,0)" text-rendering="geometricPrecision" shape-rendering="geometricPrecision" transform="matrix(1,0,0,1,-90,-65)" stroke="rgb(255,204,0)">
      <rect x="881.1908" y="256.1135" clip-path="url(#clipPath2)" width="61" rx="4" ry="4" height="43.7729" stroke="none"/>
    </g>
    <g text-rendering="geometricPrecision" stroke-miterlimit="1.45" shape-rendering="geometricPrecision" transform="matrix(1,0,0,1,-90,-65)" stroke-linecap="butt">
      <rect x="881.1908" y="256.1135" clip-path="url(#clipPath2)" fill="none" width="61" rx="4" ry="4" height="43.7729"/>
      <text x="891.5198" xml:space="preserve" y="282.1543" clip-path="url(#clipPath2)" font-family="sans-serif" stroke="none">site SP</text>
    </g>
    <g fill="rgb(255,153,204)" text-rendering="geometricPrecision" shape-rendering="geometricPrecision" transform="matrix(1,0,0,1,-90,-65)" stroke="rgb(255,153,204)">
      <rect x="724.0217" width="61" height="30" y="228" clip-path="url(#clipPath2)" stroke="none"/>
    </g>
    <g text-rendering="geometricPrecision" stroke-miterlimit="1.45" shape-rendering="geometricPrecision" transform="matrix(1,0,0,1,-90,-65)" stroke-linecap="butt">
      <rect fill="none" x="724.0217" width="61" height="30" y="228" clip-path="url(#clipPath2)"/>
      <text x="742.8323" xml:space="preserve" y="247.1543" clip-path="url(#clipPath2)" font-family="sans-serif" stroke="none">PDF</text>
    </g>
    <g fill="rgb(255,204,0)" text-rendering="geometricPrecision" shape-rendering="geometricPrecision" transform="matrix(1,0,0,1,-90,-65)" stroke="rgb(255,204,0)">
      <path d="M123.78 129.8446 L164.78 107.0537 L205.78 129.8446 L164.78 152.6354 Z" fill-rule="evenodd" clip-path="url(#clipPath2)" stroke="none"/>
    </g>
    <g text-rendering="geometricPrecision" stroke-miterlimit="1.45" shape-rendering="geometricPrecision" transform="matrix(1,0,0,1,-90,-65)" stroke-linecap="butt">
      <path fill="none" d="M123.78 129.8446 L164.78 107.0537 L205.78 129.8446 L164.78 152.6354 Z" fill-rule="evenodd" clip-path="url(#clipPath2)"/>
      <text x="144.987" xml:space="preserve" y="133.9989" clip-path="url(#clipPath2)" font-family="sans-serif" stroke="none">auteur</text>
    </g>
    <g fill="silver" text-rendering="geometricPrecision" shape-rendering="geometricPrecision" transform="matrix(1,0,0,1,-90,-65)" stroke="silver">
      <rect x="387.6738" width="236.4246" height="37.6746" y="388.775" clip-path="url(#clipPath2)" stroke="none"/>
      <rect x="387.6738" y="388.775" clip-path="url(#clipPath2)" fill="white" width="1" height="37.6746" stroke="none"/>
      <rect x="388.6738" y="388.775" clip-path="url(#clipPath2)" fill="white" width="234.4246" height="1" stroke="none"/>
      <rect x="388.6738" y="425.4495" clip-path="url(#clipPath2)" fill="rgb(134,134,134)" width="235.4246" height="1" stroke="none"/>
      <rect x="623.0985" y="388.775" clip-path="url(#clipPath2)" fill="rgb(134,134,134)" width="1" height="36.6746" stroke="none"/>
    </g>
    <g text-rendering="geometricPrecision" stroke-miterlimit="1.45" shape-rendering="geometricPrecision" font-family="sans-serif" transform="matrix(1,0,0,1,-90,-65)" stroke-linecap="butt">
      <text x="481.06" xml:space="preserve" y="411.7665" clip-path="url(#clipPath2)" stroke="none">EDITION</text>
    </g>
    <g fill="silver" text-rendering="geometricPrecision" shape-rendering="geometricPrecision" transform="matrix(1,0,0,1,-90,-65)" stroke="silver">
      <rect x="624.0985" width="342.4182" height="37.6746" y="388.775" clip-path="url(#clipPath2)" stroke="none"/>
      <rect x="624.0985" y="388.775" clip-path="url(#clipPath2)" fill="white" width="1" height="37.6746" stroke="none"/>
      <rect x="625.0985" y="388.775" clip-path="url(#clipPath2)" fill="white" width="340.4182" height="1" stroke="none"/>
      <rect x="625.0985" y="425.4495" clip-path="url(#clipPath2)" fill="rgb(134,134,134)" width="341.4182" height="1" stroke="none"/>
      <rect x="965.5166" y="388.775" clip-path="url(#clipPath2)" fill="rgb(134,134,134)" width="1" height="36.6746" stroke="none"/>
    </g>
    <g text-rendering="geometricPrecision" stroke-miterlimit="1.45" shape-rendering="geometricPrecision" font-family="sans-serif" transform="matrix(1,0,0,1,-90,-65)" stroke-linecap="butt">
      <text x="755.1298" xml:space="preserve" y="411.7665" clip-path="url(#clipPath2)" stroke="none">PUBLICATION</text>
    </g>
    <g fill="silver" text-rendering="geometricPrecision" shape-rendering="geometricPrecision" transform="matrix(1,0,0,1,-90,-65)" stroke="silver">
      <rect x="105.5138" width="282.16" height="37.6746" y="388.775" clip-path="url(#clipPath2)" stroke="none"/>
      <rect x="105.5138" y="388.775" clip-path="url(#clipPath2)" fill="white" width="1" height="37.6746" stroke="none"/>
      <rect x="106.5138" y="388.775" clip-path="url(#clipPath2)" fill="white" width="280.16" height="1" stroke="none"/>
      <rect x="106.5138" y="425.4495" clip-path="url(#clipPath2)" fill="rgb(134,134,134)" width="281.16" height="1" stroke="none"/>
      <rect x="386.6738" y="388.775" clip-path="url(#clipPath2)" fill="rgb(134,134,134)" width="1" height="36.6746" stroke="none"/>
    </g>
    <g text-rendering="geometricPrecision" stroke-miterlimit="1.45" shape-rendering="geometricPrecision" font-family="sans-serif" transform="matrix(1,0,0,1,-90,-65)" stroke-linecap="butt">
      <text x="206.2374" xml:space="preserve" y="411.7665" clip-path="url(#clipPath2)" stroke="none">PRODUCTION</text>
    </g>
    <g fill="rgb(153,204,255)" text-rendering="geometricPrecision" shape-rendering="geometricPrecision" transform="matrix(1,0,0,1,-90,-65)" stroke="rgb(153,204,255)">
      <rect x="430.3" width="61" height="30" y="263" clip-path="url(#clipPath2)" stroke="none"/>
    </g>
    <g text-rendering="geometricPrecision" stroke-miterlimit="1.45" shape-rendering="geometricPrecision" transform="matrix(1,0,0,1,-90,-65)" stroke-linecap="butt">
      <rect fill="none" x="430.3" width="61" height="30" y="263" clip-path="url(#clipPath2)"/>
      <text x="451.0031" xml:space="preserve" y="282.1543" clip-path="url(#clipPath2)" font-family="sans-serif" stroke="none">MD</text>
    </g>
    <g fill="rgb(204,255,204)" text-rendering="geometricPrecision" shape-rendering="geometricPrecision" transform="matrix(1,0,0,1,-90,-65)" stroke="rgb(204,255,204)">
      <rect x="430.3" width="61" height="30" y="211" clip-path="url(#clipPath2)" stroke="none"/>
    </g>
    <g text-rendering="geometricPrecision" stroke-miterlimit="1.45" shape-rendering="geometricPrecision" transform="matrix(1,0,0,1,-90,-65)" stroke-linecap="butt">
      <rect fill="none" x="430.3" width="61" height="30" y="211" clip-path="url(#clipPath2)"/>
      <text x="444.5109" xml:space="preserve" y="230.1543" clip-path="url(#clipPath2)" font-family="sans-serif" stroke="none">YAML</text>
    </g>
    <g fill="rgb(204,255,204)" text-rendering="geometricPrecision" shape-rendering="geometricPrecision" transform="matrix(1,0,0,1,-90,-65)" stroke="rgb(204,255,204)">
      <rect x="430.3" width="61" height="30" y="315" clip-path="url(#clipPath2)" stroke="none"/>
    </g>
    <g text-rendering="geometricPrecision" stroke-miterlimit="1.45" shape-rendering="geometricPrecision" transform="matrix(1,0,0,1,-90,-65)" stroke-linecap="butt">
      <rect fill="none" x="430.3" width="61" height="30" y="315" clip-path="url(#clipPath2)"/>
      <text x="439.2316" xml:space="preserve" y="334.1543" clip-path="url(#clipPath2)" font-family="sans-serif" stroke="none">BIBTEX</text>
    </g>
    <g fill="rgb(204,255,204)" text-rendering="geometricPrecision" shape-rendering="geometricPrecision" transform="matrix(1,0,0,1,-90,-65)" stroke="rgb(204,255,204)">
      <rect x="419.8" width="61" height="30" y="138.2854" clip-path="url(#clipPath2)" stroke="none"/>
    </g>
    <g text-rendering="geometricPrecision" stroke-miterlimit="1.45" shape-rendering="geometricPrecision" transform="matrix(1,0,0,1,-90,-65)" stroke-linecap="butt">
      <rect fill="none" x="419.8" width="61" height="30" y="138.2854" clip-path="url(#clipPath2)"/>
      <text x="430.0998" xml:space="preserve" y="150.4554" clip-path="url(#clipPath2)" font-family="sans-serif" stroke="none">Isidore</text>
      <text x="440.8078" xml:space="preserve" y="164.4241" clip-path="url(#clipPath2)" font-family="sans-serif" stroke="none">API</text>
      <rect x="407.24" y="198.2854" clip-path="url(#clipPath2)" fill="none" width="185.6791" height="180.6168" stroke="fuchsia"/>
      <text x="480.8755" y="370.0722" clip-path="url(#clipPath2)" fill="fuchsia" font-family="sans-serif" stroke="none" xml:space="preserve">STYLO</text>
    </g>
    <g fill="rgb(255,204,0)" text-rendering="geometricPrecision" shape-rendering="geometricPrecision" transform="matrix(1,0,0,1,-90,-65)" stroke="rgb(255,204,0)">
      <rect x="515.6253" width="61" height="30" y="263" clip-path="url(#clipPath2)" stroke="none"/>
    </g>
    <g text-rendering="geometricPrecision" stroke-miterlimit="1.45" shape-rendering="geometricPrecision" transform="matrix(1,0,0,1,-90,-65)" stroke-linecap="butt">
      <rect fill="none" x="515.6253" width="61" height="30" y="263" clip-path="url(#clipPath2)"/>
      <text x="522.3421" xml:space="preserve" y="275.1699" clip-path="url(#clipPath2)" font-family="sans-serif" stroke="none">preview</text>
      <text x="529.429" xml:space="preserve" y="289.1387" clip-path="url(#clipPath2)" font-family="sans-serif" stroke="none">HTML</text>
      <rect x="640.6088" y="198.2854" clip-path="url(#clipPath2)" fill="none" width="61" height="180.6168" stroke="blue"/>
      <text x="643.0013" y="342.1347" clip-path="url(#clipPath2)" fill="blue" font-family="sans-serif" stroke="none" xml:space="preserve">PROCESS</text>
      <text x="654.4418" y="356.1035" clip-path="url(#clipPath2)" fill="blue" font-family="sans-serif" stroke="none" xml:space="preserve">dédié</text>
      <text x="653.9056" y="370.0722" clip-path="url(#clipPath2)" fill="blue" font-family="sans-serif" stroke="none" xml:space="preserve">revue</text>
    </g>
    <g fill="rgb(204,255,204)" text-rendering="geometricPrecision" shape-rendering="geometricPrecision" transform="matrix(1,0,0,1,-90,-65)" stroke="rgb(204,255,204)">
      <rect x="724.0217" width="61" height="30" y="298" clip-path="url(#clipPath2)" stroke="none"/>
    </g>
    <g text-rendering="geometricPrecision" stroke-miterlimit="1.45" shape-rendering="geometricPrecision" transform="matrix(1,0,0,1,-90,-65)" stroke-linecap="butt">
      <rect fill="none" x="724.0217" width="61" height="30" y="298" clip-path="url(#clipPath2)"/>
      <text x="732.9534" xml:space="preserve" y="317.1543" clip-path="url(#clipPath2)" font-family="sans-serif" stroke="none">BIBTEX</text>
      <path fill="none" d="M785.0217 278 L787.4347 278 L787.4347 278 L799.4776 278" clip-path="url(#clipPath2)"/>
      <path d="M807.4776 278 L795.4776 273 L798.4776 278 L795.4776 283 Z" clip-path="url(#clipPath2)" stroke="none"/>
      <path fill="none" d="M864.4622 278 L870.583 278 L870.583 278 L873.2213 278" clip-path="url(#clipPath2)"/>
      <path d="M881.2213 278 L869.2213 273 L872.2213 278 L869.2213 283 Z" clip-path="url(#clipPath2)" stroke="none"/>
      <path fill="none" d="M785.0217 243 L799.4541 243" clip-path="url(#clipPath2)"/>
      <path d="M807.4541 243 L795.4541 238 L798.4541 243 L795.4541 248 Z" clip-path="url(#clipPath2)" stroke="none"/>
      <path fill="none" d="M164.78 152.6684 L164.78 278 L192 278" clip-path="url(#clipPath2)"/>
      <path d="M200 278 L188 273 L191 278 L188 283 Z" clip-path="url(#clipPath2)" stroke="none"/>
      <path fill="none" d="M164.78 152.6158 L164.78 226 L192 226" clip-path="url(#clipPath2)"/>
      <path d="M200 226 L188 221 L191 226 L188 231 Z" clip-path="url(#clipPath2)" stroke="none"/>
      <path fill="none" d="M460.8 263 L460.8 241" clip-path="url(#clipPath2)"/>
      <path fill="none" d="M460.8 293 L460.8 315" clip-path="url(#clipPath2)"/>
      <path fill="none" d="M261 226 L312.8578 226 L312.8578 278 L399.2119 278" clip-path="url(#clipPath2)"/>
      <path d="M407.2119 278 L395.2119 273 L398.2119 278 L395.2119 283 Z" clip-path="url(#clipPath2)" stroke="none"/>
      <text x="272.6214" font-size="10px" y="224.1069" clip-path="url(#clipPath2)" font-family="sans-serif" stroke="none" xml:space="preserve">Pandoc</text>
      <path fill="none" d="M261 278 L399.2584 278" clip-path="url(#clipPath2)"/>
      <path d="M407.2584 278 L395.2584 273 L398.2584 278 L395.2584 283 Z" clip-path="url(#clipPath2)" stroke="none"/>
      <path fill="none" d="M261 330 L399.2405 330" clip-path="url(#clipPath2)"/>
      <path d="M407.2405 330 L395.2405 325 L398.2405 330 L395.2405 335 Z" clip-path="url(#clipPath2)" stroke="none"/>
      <text x="316.5581" font-size="10px" y="327.666" clip-path="url(#clipPath2)" font-family="sans-serif" stroke="none" xml:space="preserve">sync</text>
      <path fill="none" stroke-dasharray="4,3,0,3" d="M465.7553 168.3095 L467.5666 172.7679 L468.3687 178.5792 L467.7651 184.7668 L465.8343 191.0739 L465.7901 191.1637" clip-path="url(#clipPath2)" stroke-linecap="round"/>
      <path stroke-dasharray="4,3,0,3" d="M462.2968 198.3607 L472.0349 189.7485 L466.2267 190.264 L463.0386 185.3819 Z" clip-path="url(#clipPath2)" stroke-linecap="round" stroke="none"/>
      <text x="471.5016" font-size="10px" y="180.1716" clip-path="url(#clipPath2)" font-family="sans-serif" stroke="none" xml:space="preserve">enrichissement</text>
      <text x="483.6232" font-size="10px" y="191.8122" clip-path="url(#clipPath2)" font-family="sans-serif" stroke="none" xml:space="preserve">&amp;autorités</text>
      <path fill="none" stroke-dasharray="4,3,0,3" d="M429.8881 198.2736 L427.5238 190.4454 L426.557 183.2241 L426.9971 176.6404 L427.3054 175.6478 L427.3576 175.5626" clip-path="url(#clipPath2)" stroke-linecap="round"/>
      <path stroke-dasharray="4,3,0,3" d="M430.3811 168.1559 L421.2167 177.3763 L426.9797 176.4884 L430.4751 181.1556 Z" clip-path="url(#clipPath2)" stroke-linecap="round" stroke="none"/>
      <path fill="none" stroke-dasharray="6,2" d="M546.1253 263 L546.1253 129.8446 L213.7914 129.8446" clip-path="url(#clipPath2)"/>
      <path stroke-dasharray="6,2" d="M205.7914 129.8446 L217.7914 134.8446 L214.7914 129.8446 L217.7914 124.8446 Z" clip-path="url(#clipPath2)" stroke="none"/>
      <text x="380.5891" font-size="10px" y="123.568" clip-path="url(#clipPath2)" font-family="sans-serif" stroke="none" xml:space="preserve">&lt;-- soumis à l'auteur</text>
      <path fill="none" d="M701.6147 278 L716.0217 278" clip-path="url(#clipPath2)" stroke="blue"/>
      <path fill="blue" d="M724.0217 278 L712.0217 273 L715.0217 278 L712.0217 283 Z" clip-path="url(#clipPath2)" stroke="none"/>
      <path fill="none" d="M632.6088 288.5939 L592.9191 288.5939" clip-path="url(#clipPath2)" stroke="fuchsia"/>
      <path fill="fuchsia" d="M640.6088 288.5939 L628.6088 283.5939 L631.6088 288.5939 L628.6088 293.5939 Z" clip-path="url(#clipPath2)" stroke="none"/>
      <path fill="none" d="M701.6075 360.1204 L876.9224 360.1204" clip-path="url(#clipPath2)" stroke="blue"/>
      <path fill="blue" d="M884.9224 360.1204 L872.9224 355.1204 L875.9224 360.1204 L872.9224 365.1204 Z" clip-path="url(#clipPath2)" stroke="none"/>
      <path fill="none" d="M701.6147 243 L716.0217 243" clip-path="url(#clipPath2)" stroke="blue"/>
      <path fill="blue" d="M724.0217 243 L712.0217 238 L715.0217 243 L712.0217 248 Z" clip-path="url(#clipPath2)" stroke="none"/>
      <path fill="none" d="M701.6147 313 L716.0217 313" clip-path="url(#clipPath2)" stroke="blue"/>
      <path fill="blue" d="M724.0217 313 L712.0217 308 L715.0217 313 L712.0217 318 Z" clip-path="url(#clipPath2)" stroke="none"/>
      <path fill="none" d="M785.0217 313 L799.4541 313" clip-path="url(#clipPath2)"/>
      <path d="M807.4541 313 L795.4541 308 L798.4541 313 L795.4541 318 Z" clip-path="url(#clipPath2)" stroke="none"/>
    </g>
  </g>
</svg>
